  0
SECTION
  2
HEADER
  9
$ACADVER
  1
AC1027
  9
$INSUNITS
 70
4
  9
$MEASUREMENT
 70
1
  9
$EXTMIN
 10
0.0
 20
0.0
 30
0.0
  9
$EXTMAX
 10
420.0
 20
297.0
 30
0.0
  9
$LIMMIN
 10
0.0
 20
0.0
  9
$LIMMAX
 10
420.0
 20
297.0
  0
ENDSEC
  0
SECTION
  2
TABLES
  0
TABLE
  2
LAYER
 70
3
  0
LAYER
  2
0
 70
0
 62
7
  6
Continuous
  0
LAYER
  2
Walls
 70
0
 62
1
  6
Continuous
  0
LAYER
  2
Dimensions
 70
0
 62
3
  6
Continuous
  0
ENDTAB
  0
ENDSEC
  0
SECTION
  2
BLOCKS
  0
BLOCK
  8
0
  2
*Model_Space
 70
0
 10
0.0
 20
0.0
 30
0.0
  3
*Model_Space
  1

  0
ENDBLK
  8
0
  0
BLOCK
  8
0
  2
DOOR
 70
0
 10
0.0
 20
0.0
 30
0.0
  3
DOOR
  1

  0
LINE
  8
Walls
 10
0.0
 20
0.0
 30
0.0
 11
90.0
 21
0.0
 31
0.0
  0
ARC
  8
Walls
 10
0.0
 20
0.0
 30
0.0
 40
90.0
 50
0.0
 51
90.0
  0
ENDBLK
  8
0
  0
ENDSEC
  0
SECTION
  2
ENTITIES
  0
LINE
  8
Walls
 10
0.0
 20
0.0
 30
0.0
 11
420.0
 21
0.0
 31
0.0
  0
LINE
  8
Walls
 10
420.0
 20
0.0
 30
0.0
 11
420.0
 21
297.0
 31
0.0
  0
LINE
  8
Walls
 10
420.0
 20
297.0
 30
0.0
 11
0.0
 21
297.0
 31
0.0
  0
LINE
  8
Walls
 10
0.0
 20
297.0
 30
0.0
 11
0.0
 21
0.0
 31
0.0
  0
LINE
  8
Walls
 10
100.0
 20
0.0
 30
0.0
 11
100.0
 21
200.0
 31
0.0
  0
LINE
  8
Walls
 10
100.0
 20
200.0
 30
0.0
 11
300.0
 21
200.0
 31
0.0
  0
CIRCLE
  8
Walls
 10
210.0
 20
148.5
 30
0.0
 40
40.0
  0
ARC
  8
Walls
 10
210.0
 20
100.0
 30
0.0
 40
30.0
 50
0.0
 51
180.0
  0
TEXT
  8
Dimensions
 10
5.0
 20
290.0
 30
0.0
 40
5.0
  1
File Viewer DXF Sample
  0
TEXT
  8
Dimensions
 10
5.0
 20
280.0
 30
0.0
 40
3.5
  1
A4 Sheet 420 x 297 mm
  0
MTEXT
  8
Dimensions
 10
200.0
 20
10.0
 30
0.0
 40
4.0
  1
Demo drawing
  0
INSERT
  8
Walls
  2
DOOR
 10
100.0
 20
60.0
 30
0.0
  0
INSERT
  8
Walls
  2
DOOR
 10
200.0
 20
0.0
 30
0.0
  0
LWPOLYLINE
  8
Walls
 90
4
 70
1
 10
150.0
 20
50.0
 10
250.0
 20
50.0
 10
250.0
 20
150.0
 10
150.0
 20
150.0
  0
DIMENSION
  8
Dimensions
  2
*D1
 10
0.0
 20
0.0
 30
0.0
 70
33
  0
ENDSEC
  0
EOF
